<?xml version="1.0"?><svg fill="rgb(var(--color1))" xmlns="http://www.w3.org/2000/svg"  viewBox="0 0 50 50" width="500px" height="500px">    <path d="M 25 2 C 12.309 2 2 12.309 2 25 C 2 37.691 12.309 48 25 48 C 37.691 48 48 37.691 48 25 C 48 12.309 37.691 2 25 2 z M 26.785156 12.037109 L 28.886719 12.037109 L 28.886719 16.822266 C 28.886719 17.894266 28.852156 18.856984 28.785156 19.708984 L 28.886719 19.708984 C 29.865719 18.324984 31.316234 17.632812 33.240234 17.632812 C 35.063234 17.632812 36.476469 18.256859 37.480469 19.505859 C 38.493469 20.746859 38.998047 22.505203 38.998047 24.783203 C 38.998047 27.061203 38.48975 28.835563 37.46875 30.101562 C 36.45575 31.358563 35.046234 31.986328 33.240234 31.986328 C 32.337234 31.986328 31.510766 31.821187 30.759766 31.492188 C 30.016766 31.154187 29.392719 30.641219 28.886719 29.949219 L 28.734375 29.949219 L 28.291016 31.734375 L 26.785156 31.734375 L 26.785156 12.037109 z M 16.746094 17.607422 C 18.645094 17.607422 20.105953 18.324766 21.126953 19.759766 L 21.240234 19.759766 L 21.544922 17.861328 L 23.203125 17.861328 L 23.203125 37.962891 L 23.201172 37.962891 L 21.101562 37.962891 L 21.101562 32.025391 C 21.101562 31.181391 21.147234 30.464047 21.240234 29.873047 L 21.074219 29.873047 C 20.104219 31.282047 18.645313 31.986328 16.695312 31.986328 C 14.906313 31.986328 13.509859 31.358562 12.505859 30.101562 C 11.501859 28.844563 11 27.089938 11 24.835938 C 11 22.565938 11.506531 20.793531 12.519531 19.519531 C 13.532531 18.245531 14.940094 17.607422 16.746094 17.607422 z M 16.986328 19.367188 C 15.754328 19.367188 14.810344 19.848547 14.152344 20.810547 C 13.502344 21.764547 13.177734 23.114328 13.177734 24.861328 C 13.177734 26.608328 13.497672 27.941328 14.138672 28.861328 C 14.788672 29.772328 15.746719 30.228516 17.011719 30.228516 C 18.412719 30.228516 19.433219 29.853562 20.074219 29.101562 C 20.715219 28.350562 21.057609 27.084687 21.099609 25.304688 L 21.099609 24.835938 C 21.099609 22.894938 20.771281 21.499484 20.113281 20.646484 C 19.456281 19.793484 18.412328 19.367188 16.986328 19.367188 z M 32.9375 19.392578 C 31.5025 19.392578 30.468937 19.806812 29.835938 20.632812 C 29.202938 21.451812 28.886719 22.834203 28.886719 24.783203 C 28.886719 26.732203 29.211328 28.130609 29.861328 28.974609 C 30.511328 29.809609 31.553281 30.226562 32.988281 30.226562 C 34.279281 30.226562 35.242 29.759266 35.875 28.822266 C 36.508 27.877266 36.824219 26.523766 36.824219 24.759766 C 36.824219 22.953766 36.508 21.606703 35.875 20.720703 C 35.241 19.834703 34.2625 19.392578 32.9375 19.392578 z"/></svg>